<svg id="Lager_2" data-name="Lager 2" xmlns="http://www.w3.org/2000/svg" viewBox="0 0 202.63 199.29"><defs><style>.cls-1{fill:none;}.cls-2{fill:#8597c1;}.cls-3{fill:#a2b6db;}.cls-4{fill:#aec0e3;}.cls-5{fill:#6e82b7;}.cls-6{fill:#8fa0d0;}.cls-7{fill:#59628a;}</style></defs><title>aP</title><polygon class="cls-1" points="101.31 139.08 0 199.29 101.31 0 202.63 199.29 101.31 139.08"/><path class="cls-2" d="M84.26,39.54,202.63,199.29,102.84,3Z" transform="translate(0 0)"/><path class="cls-3" d="M101.31,0,0,199.29,122.24,41.16Z" transform="translate(0 0)"/><path class="cls-4" d="M122.24,41.16h0L101.31,0,82.74,36.55,103.82,65Z" transform="translate(0 0)"/><path class="cls-1" d="M171.19,96.87" transform="translate(0 0)"/><path class="cls-5" d="M101.35,139.11l54.29-32.24-33.4-65.71h0L0,199.29l101.31-60.21Z" transform="translate(0 0)"/><path class="cls-6" d="M141.2,115.44l14.44-8.58-3.74-7.37-3.39-6.67-2-3.91L145,85.85l-.87-1.72L137,70.23l-1-1.93-1.27-2.51-1.17-2.31L122.24,41.16,103.81,65Z" transform="translate(0 0)"/><polygon class="cls-7" points="141.2 115.44 101.31 139.08 202.63 199.29 141.2 115.44"/></svg>